<svg width="416" height="210" viewBox="0 0 416 210" fill="none" xmlns="http://www.w3.org/2000/svg">
<path d="M47.7041 141.506L47.7041 209.877L-1.00004 209.877L-1 8.74228e-07L72.7627 1.28971e-05C129.802 2.28701e-05 151 26 155.321 62.0157C155.321 102.924 129.454 127.13 105.72 140.433L161.874 209.877L97.5615 209.877L47.7041 141.506ZM47.7041 103.87L73.3271 103.87C93.1377 103.87 105.043 86.1133 105.043 68.5996C105.043 60.1485 93.3291 44.9229 73.9014 44.9229C54.4736 44.9229 47.7041 46.9229 47.7041 46.9229L47.7041 103.87Z" fill="white"/>
<path d="M268.011 210.877L225.088 59.7139L223.796 59.7139C225.806 85.458 226.811 105.46 226.811 119.72L226.811 210.877L176.567 210.877L176.567 1.00003L252.077 1.00004L295.861 150.01L297.009 150.01L339.932 1.00006L415.585 1.00007L415.585 210.877L363.475 210.877L363.475 118.858C363.475 114.073 363.523 108.762 363.619 102.924C363.81 97.086 364.48 82.7784 365.628 60.001L364.336 60.001L321.988 210.877L268.011 210.877Z" fill="white"/>
</svg>
